<svg version="1" xmlns="https://www.w3.org/2000/svg" width="346.667" height="346.667" viewBox="0 0 260.000000 260.000000"><path d="M208.7 78.6c-.2.3-1.7.6-3.3.9-5.9.8-14.4 4.2-14.4 5.7 0 .4-.6.8-1.3.8-.8 0-3.2 2-5.5 4.4-3.2 3.4-3.8 4.6-2.9 5.6 1 1 .8 1.2-.5.7-1.2-.4-1.8-.1-1.8.8 0 .8-.4 1.5-1 1.5-.5 0-1.6 1.3-2.5 3-.9 1.7-1.1 3-.5 3 .5 0 1 .5 1 1 0 .6-.5.9-1.2.8-.6-.2-1.4.6-1.6 1.7-.2 1.1-1 2.4-1.8 2.8-2.1 1.2-1.8 4.8.4 4.1 1.1-.4 1.3-.3.5.3-3.4 2.5-5.1 17.8-2.6 24 .7 1.8 1.3 4.6 1.3 6.2 0 1.6.5 3.3 1 3.6.6.4.8 1 .5 1.5-.3.4.2 1.3 1 2s1.5 1.9 1.5 2.6c0 .8 1.6 3.7 3.5 6.4s3.5 5.4 3.5 6c0 .9 1.4 1.4 3.3 1.1.4 0 .7.7.7 1.7 0 2.8 8.7 7.2 12.9 6.6 2.8-.5 3.3-.3 2.8 1-.5 1.4-.3 1.5 1.3.6 1.7-.9 2-.8 2 1 0 2.1 2 2.9 2 .7.1-.7.6-.5 1.4.5 1.3 1.8 3.2 2.5 2.2.9-.3-.5.1-1.1.9-1.5.8-.3 1.7-.1 2 .4.4.6 1.2 1 1.8.9.9 0 .9-.2 0-.6-1.8-.7-1.6-2.3.2-2.3.8 0 1.5.6 1.5 1.3 0 .7.9 1.3 2 1.4 1.1.1 2-.2 2-.8 0-.5.7-.9 1.6-.9.9 0 1.3-.5.9-1.3-.3-.6 0-.5.6.4 1.1 1.5 1.7 1.5 5.1.3 7-2.4 9.6-4.5 9.5-7.3-.2-2.2.2-2.6 2.6-2.5 2 .1 3.3-.6 4.5-2.5.9-1.4 2.9-4.1 4.4-5.8 1.7-2.1 2.5-3.9 2.1-5-.4-1.1-.3-1.4.5-.9.8.4 1.2 0 1.2-1.2 0-1 .3-2.2.8-2.6.4-.4.7-1.7.8-2.9.1-1.2.6-3.5 1.3-5.2 1.5-3.6.9-21.1-.7-22.7-.8-.8-.8-1.7-.1-3 .7-1.2.6-1.8-.1-1.8-.6 0-.9-.4-.6-.8.8-1.3-3.9-11.8-6.7-15.2-1.5-1.7-3.4-4.6-4.3-6.5-.9-1.9-2.4-3.5-3.3-3.5-.9 0-2.1-.8-2.7-1.8-.7-.9-3.3-2.8-6-4.2-2.7-1.4-5.2-2.9-5.5-3.3-.3-.4-1.3-.5-2.2-.1-1 .3-1.7.1-1.7-.5 0-1.1-4-.9-6 .4-.5.3-1 .1-1-.5s-.4-.9-.9-.6c-.5.3-.7 1.5-.4 2.6.3 1.1.9 1.8 1.3 1.5.4-.3 1 .9 1.4 2.5.3 1.9 1.2 3 2.3 3.1 1.2 0 1.3.2.5.6-.8.3-2.2-.4-3.3-1.6-1.1-1.2-2.4-1.9-3-1.6-.5.4-.9 0-.9-.8s-.9-2.6-2.1-4.1c-1.5-1.9-1.6-2.4-.5-2 .9.3 1.6.4 1.6.1 0-.7-2.7-1.6-3.3-1.1zm-6.3 4.9c-.4.8-1 1.2-1.5.9-1.1-.6-.2-2.4 1.1-2.4.5 0 .7.7.4 1.5zm7.8.8c.8 1.7.7 1.8-1.4 1.2-1.2-.4-3-1.3-3.8-2.1-1.2-1.2-1.1-1.4 1.4-1.2 1.5.1 3.2 1.1 3.8 2.1zm13.1-.7c-.6 1.5-2.9 1.9-3.7.5-.7-1.1-.1-1.6 2.3-1.8 1.3-.1 1.8.3 1.4 1.3zm8.5 6.8c-1.3 1.4-2.8 1.2-2.8-.5 0-.5.9-.9 2-.9 1.7 0 1.9.2.8 1.4zM203.5 92c.3.5.1 1-.4 1-.6 0-1.1-.5-1.1-1 0-.6.2-1 .4-1 .3 0 .8.4 1.1 1zm17.4.5c4.3 3.2 9.1 8.8 9.7 11.2.3 1.6.9 3.9 1.3 5.3.5 1.4.7 3.3.5 4.2-.1 1 .1 1.8.6 1.8s.6 1.2.4 2.7c-1.7 10.3-1 20.7 1.3 19.9.8-.3 1.1-.1.8.4-.3.6-.1 1 .4 1 2.1 0 1.1 2.8-1.1 3.4-1.7.4-2 .8-1.1 1.7.8.8.6 1.6-.9 3.1-1.2 1.2-1.7 2.6-1.3 3.9.4 1 .3 1.9-.2 1.9-.4 0-1.6 2-2.6 4.4-1 2.5-2.8 5.6-4 6.9-2.9 3.3-10.6 7.1-13.6 6.8-5.5-.6-13.5-9.7-14.4-16.3-.2-2-.7-4.1-1.1-4.6-.4-.6-.9-5.4-1.2-10.5-.7-11.4-.7-11.8-1.9-13.7-1.6-2.5-1.6-5 0-5 .8 0 1.5-.7 1.5-1.5s.6-1.5 1.3-1.5c.9 0 .9-.2-.1-.9-2.1-1.3-2.4-6.9-.4-8 .9-.6 1.4-1.1 1-1.1-.5 0 .1-.9 1.2-2 1.1-1.1 2-2.9 2-4 0-2.3 6.5-9 10.1-10.2 2.4-.9 10.3-.4 11.8.7zm17.2 2.7c-1.2.4-1.9 1.2-1.6 1.8.3.5-.1 1-.9 1-.9 0-1.6-.3-1.6-.6 0-1.2 4.5-4.2 5.4-3.6.5.3-.1.9-1.3 1.4zm-38.1.9c0 .6-.4.7-1 .4-.5-.3-1-1.1-1-1.6 0-.6.5-.7 1-.4.6.3 1 1.1 1 1.6zm-10.5 17.8c-.3.5-.1 1.2.5 1.6 1.3.8 1.3 3.5-.1 3.5-.5 0-.7-.5-.4-1 .3-.6-.1-1.3-1-1.6-1.2-.5-1.3-.9-.4-2 1.3-1.6 2.3-1.9 1.4-.5zm56.2 3.8c-.4.3.1 1.2 1.1 2 .9.8 1.2 1.2.6.9-.7-.3-1.4.1-1.8.9-.3.8 0 1.5.6 1.5s.9.3.5.6c-.3.3-1.5.3-2.6-.1-2.6-.8-2.9-5.2-.3-5.8.9-.3 1.9-.5 2.1-.6.2 0 .1.2-.2.6zm.4 20.7c1 .4 1.5 1.5 1.2 2.6-.5 1.9-3.1 3.5-4.1 2.5-.3-.3 0-.5.6-.5.7 0 1.2-1.2 1.2-2.6 0-1.4-.4-2.3-.9-1.9-.5.3-1.2.1-1.5-.4-.6-1 .9-.9 3.5.3zm-6.2 2c.9 1 .8 1.5-.4 2-1 .4-1.5-.1-1.5-1.4 0-2.4.4-2.5 1.9-.6zm1.9 10.3c-.2 1.1-1.4 1.9-3.1 2.1-2.7.3-2.8.3-1-1.7 2.1-2.6 4.6-2.7 4.1-.4zM189 168.4c0 .3-.4.8-1 1.1-.5.3-1 .1-1-.4 0-.6.5-1.1 1-1.1.6 0 1 .2 1 .4zm6 0c0 .2-.8 1-1.7 1.7-1.6 1.3-1.7 1.2-.4-.4 1.3-1.6 2.1-2.1 2.1-1.3zm-3.4 3.8c.4.7.3.8-.4.4s-1.2-.2-1.2.5-.3 1-.6.6c-.6-.5.3-2.7 1.1-2.7.2 0 .7.5 1.1 1.2zm5.4 1.2c0 .2-.8 1-1.7 1.7-1.6 1.3-1.7 1.2-.4-.4 1.3-1.6 2.1-2.1 2.1-1.3zm12.4 5.5c.4.5-.3.7-1.4.4-2.3-.6-2.6-1.3-.6-1.3.8 0 1.7.4 2 .9z"/><path d="M233 140c0 .5.5 1 1.1 1 .5 0 .7-.5.4-1-.3-.6-.8-1-1.1-1-.2 0-.4.4-.4 1zM243 120c0 .5.5 1 1.1 1 .5 0 .7-.5.4-1-.3-.6-.8-1-1.1-1-.2 0-.4.4-.4 1zM113.3 80.8c-.6.4-6.2.6-12.5.5C85.6 81 84 81.4 84 85c0 6.1 2.7 8.9 8.7 9 2.8 0 4.3 2.7 4.3 7.6 0 2.9.3 3.4 1.3 2.5.8-.6 1.7-.8 2.1-.4.3.4-.6 1.6-2 2.8-1.9 1.5-2.5 2.6-1.9 3.6 1.1 1.7 1.4 4.9.5 4.9-.3 0-.6 2.4-.7 5.2 0 2.9-.1 6.4-.1 7.8-.1 1.4-.1 7.7-.1 14 .1 13.9-.6 24.8-1.5 25.7-.4.4-1.9.9-3.3 1.1-5.4.7-6.6 2-6 6.8.2 2.5.8 4.8 1.2 5.2.4.4 7.5.7 16 .7 13.1 0 15.2-.2 14.7-1.5-.4-1.2-.2-1.3.9-.3 1.7 1.7 3.7 1.6 5.5-.2.9-.8 2.1-1.5 2.7-1.4.9 0 .8.2 0 .6-1.7.6-1.6 2 0 2.6 2.3.8 3.9-.9 4.3-4.4.7-5.2-1.3-8.1-5.1-7.6-5.2.7-9.1-3.7-7.3-8.2 1.1-2.7 1.4-20.4.4-22-.4-.5.1-1.6.9-2.4.8-.9 1.5-2 1.5-2.6 0-.6.7-1.1 1.6-1.1.8 0 1.2.4.9 1-.3.5-.1 1 .5 1s2 .9 3.2 2c1.7 1.6 2.4 1.7 3.7.7 1.4-1 1.4-1 .3.5-1.1 1.4-1.1 2.2.2 4.7.9 1.6 1.6 4.5 1.6 6.3 0 1.8.5 4.9 1.1 6.8 1.3 4.4 1.5 5.3 3.3 11.6 1.9 6.9 6.2 13.3 9.5 14.1 3.6.9 9.3.8 11.7-.2 1-.4 2.2-.9 2.5-.9.3-.1 2.1-1.4 4.1-3 2.3-2 3.4-3.6 3-4.8-.2-1 0-1.8.6-1.8.5 0 1.3-1.9 1.7-4.3.4-2.3.9-4.9 1.1-5.6.1-.8-.5-2.8-1.4-4.3-3.2-5.5-10.2-2.4-10.2 4.4 0 3.3-2.5 2.9-2.7-.5-.2-3.2-2.5-9.7-3.4-9.7-.4 0-.6-.8-.5-1.7.3-2.1-5.1-13.3-6.4-13.3-.5 0-1-.7-1-1.5s-.5-1.5-1.1-1.5c-.5 0-.8.4-.5.8.2.4-.4.9-1.5.9-3.4.3-.2-2.5 4.2-3.7 2.2-.6 3.7-1.5 3.4-2-.3-.5.9-1.6 2.7-2.3 5-2.1 5.4-2.8 7.2-13.2.2-1.1.9-1.9 1.5-1.7.6.1 1.1-.5 1.1-1.4 0-1.3-.3-1.4-1.5-.4-.8.6-2 1-2.7.7-.8-.3-.2-1 1.5-1.7 2.4-1.2 2.5-1.5 1.3-2.9-.7-.9-1.2-2.4-1.1-3.4.2-.9 0-1.7-.5-1.7-.4 0-.7-1.1-.7-2.5 0-2.9-4-8.4-8.7-12-3.6-2.7-13-6-14.6-5-.6.3-1 .1-1-.6 0-1-.3-1-1.1-.2s-3.6 1-8.2.6-6.8-.3-6.4.4c.6 1-2.7 5.3-4.1 5.3-.4 0-.7-1.6-.7-3.5.1-1.9.1-3.5.1-3.5-.1 0-.6.4-1.3.8zm22.5 15.4c1.3 1.7 4.7 1.4 3.6-.3-.3-.5-1-.6-1.6-.3-.6.4-.8.2-.5-.3.8-1.2 5.7-.5 5.7.8 0 .5-.6.9-1.4.9-.7 0-1.9.7-2.6 1.5-1.8 2.2 1.2 6.5 4.6 6.5 1.5 0 2.3.4 1.9 1-.4.6-1.5.8-2.5.5-2.6-.8-5.4 3.3-3.7 5.4.9 1.2.9 1.3 0 .7-.9-.5-1.3-.1-1.3 1.3 0 1.1-.5 2.3-1 2.6-.6.4-.8 1-.6 1.4 1.2 1.8-5.1 4.8-11.4 5.4l-6.6.6-.1-7.9c-.1-4.3-.4-8.4-.8-9.1-.4-.6-.2-1.5.5-1.9.8-.5 1.3-2.6 1.3-4.7 0-5.5.9-6.1 8.5-5.9 5 .1 7 .5 8 1.8zm20.6 7.3c-.7 1.6-2.4 2.1-2.4.6 0-.8.7-1.3 2.7-2 .1-.1 0 .6-.3 1.4zm-40.8.7c.4.7.3.8-.4.4s-1.2-.3-1.2.3-.8.7-1.7.4c-1.7-.7-1.5-.8 2.4-2.2.1-.1.5.4.9 1.1zm-10.6 1.2c0 .8.6 1.7 1.3 1.9.6.3.2.6-1.1.6-1.3.1-2-.3-1.7-.9.3-.6.1-1-.5-1s-.8-.5-.5-1c.9-1.5 2.5-1.2 2.5.4zm4.2-.7c-.6.2-.9 1-.6 1.5.4.7.2.8-.4.4-1.8-1.1-1.4-2.6.6-2.5 1 0 1.2.3.4.6zm39.2 3.3c-.6.6-1 .3-1-1s.4-1.6 1-1c.7.7.7 1.3 0 2zm8.1-.2c-.3.3-1.1 0-1.8-.7-.9-1-.8-1.1.6-.5 1 .3 1.5.9 1.2 1.2zm4.5-.8c0 .5-.4 1-1 1-.5 0-1-.5-1-1 0-.6.5-1 1-1 .6 0 1 .4 1 1zm-59.2 3.1c-.2.8 1.3 1.2 3.9 1.2 2.4 0 4 .3 3.7.8-.6 1-6.4.7-8.2-.5-.7-.4-1-1.2-.7-1.7.8-1.3 1.6-1.1 1.3.2zm52.6 1.9c-1 .4-2.5.5-3.2.2-2.2-.8.6-2.1 3.1-1.4 2 .5 2 .6.1 1.2zm4.1 4c.3.5.2 1-.4 1-.5 0-1.3-.5-1.6-1-.3-.6-.2-1 .4-1 .5 0 1.3.4 1.6 1zm-54.1 4.1c-.3.5.8.6 2.4.3 1.9-.4 3.2-.1 3.7.7.6.9.2 1.1-1.1.7-1.4-.4-2.3.2-3.1 1.8-1.1 2.4-.3 3.8 2.1 3.9.5 0 1.1.5 1.3 1.2.4 1.2-3.4 2.9-4.4 1.9-.4-.3.1-.6 1-.6s1.8-.4 2.1-.9c.4-.5-.4-.7-1.6-.3-1.4.3-1.9.2-1.4-.6.4-.7.1-1.2-.8-1.2s-1.6-.6-1.7-1.3c0-.6-.2-2.9-.4-5-.2-3.1-.1-3.6 1.1-2.6.8.6 1.1 1.5.8 2zm36.1-2.1c.3.5.1 1-.4 1-.6 0-1.1-.5-1.1-1 0-.6.2-1 .4-1 .3 0 .8.4 1.1 1zm-24 2.2c-.2 2.4-2.1 2.6-4 .6-.7-.8-.6-.9.3-.4.7.4 1.5.1 1.8-.8.9-2.4 2.1-1.9 1.9.6zm-5.5 4.9c0 .6-.4.7-1 .4-.5-.3-1-1.1-1-1.6 0-.6.5-.7 1-.4.6.3 1 1.1 1 1.6zm4 .9c0 .5-.2 1-.4 1-.3 0-.8-.5-1.1-1-.3-.6-.1-1 .4-1 .6 0 1.1.4 1.1 1zm-13 3.2c0 1.3-1.5.9-3.6-.8-1.6-1.3-1.6-1.5-.1-1 1 .3 1.7 0 1.7-.7 0-1.3 2 1.2 2 2.5zm11-1.2c0 .5-.4 1-1 1-.5 0-1-.5-1-1 0-.6.5-1 1-1 .6 0 1 .4 1 1zm-1.5 5.9c.3.5.1 1.2-.5 1.6-.5.3-1-.1-1-.9 0-1.8.6-2.1 1.5-.7zM99 135c0 .5-.2 1-.4 1-.3 0-.8-.5-1.1-1-.3-.6-.1-1 .4-1 .6 0 1.1.4 1.1 1zm2.5 23c-.3.5-1 1-1.6 1-.5 0-.9-.5-.9-1 0-.6.7-1 1.6-1 .8 0 1.2.4.9 1zm51.8 4.8c.5.7-2.6 5.2-3.6 5.2-.3 0 0-1.4.6-3 1.1-3 2.1-3.7 3-2.2zm-47.7 8c-.4.3-1.4-.2-2.4-1.2-1.6-1.8-1.6-1.8.6-.6 1.3.6 2.1 1.4 1.8 1.8z"/><path d="M4.2 82.7c-2.5 1-3.3 5.2-1.7 8.4.9 1.6 2.1 3 2.8 3 .6.1 2.3.2 3.7.3 1.4 0 2.8.5 3.1 1 .4.4.8 4.5.9 9 .3 11 .2 10.6 1.2 10.6.5 0 .7.4.3.9-.3.5.2 1.7 1.1 2.5 1.4 1.5 1.4 1.6-.5 1.6-1.1 0-2.3.4-2.6 1-.3.5-.2 1 .4 1 .6 0 .9 1.7.6 3.9-.3 3.1 0 3.9 1.1 3.4.8-.3 1.4-.9 1.4-1.5 0-.5-.5-.6-1.2-.2-.7.5-.8.3-.4-.5.5-.7 1.4-1 2.2-.7.8.3 1.1 0 .8-.8-.6-1.7 4.1-1.5 5.8.2.9.9.9 1.2 0 1.2-.7 0-1.2-.5-1.2-1.1 0-.5-.5-.7-1-.4-.6.4-.7 1.1-.4 1.7.4.7.2.8-.4.4-.7-.4-1.2-.3-1.2.1 0 .5-1.5 1.5-3.4 2.1-3.3 1.2-3.4 1.4-3.1 6 .2 2.6.4 5 .4 5.4.1.4.7.5 1.4.2 1.8-.7 1.6-4.4-.3-4.4-1.2-.1-1.1-.4.4-1.5 1.3-1 1.5-1.5.6-1.5-.8 0-.4-.8 1-2 2.6-2.2 4-2.6 4-.9 0 .5.5.7 1.2.3.6-.4.8-.3.4.4-.3.5 0 1.3.6 1.5.9.4.9.6.1.6-.6.1-1.8-.6-2.6-1.4-2-1.9-4.2.2-2.6 2.5.8 1.1 1.2 1.2 1.6.3.3-.9 1-1 2.2-.3 1 .5 2.1.7 2.4.4.3-.3.3.4 0 1.6-.3 1.2-1.7 2.6-3.2 3.2-2.2.9-2.3 1.2-.8 1.5 1.1.3 1.8 1.3 1.6 2.6-.3 4.3 0 5 1.4 3.8 1.4-1.1 2.7-.5 2.7 1.1 0 .5-2 .7-4.4.6-3.4-.2-4.2-.6-3.4-1.5.6-.7 1.5-1 2.2-.6.6.3.2-.4-.9-1.7-1.1-1.3-1.4-2-.7-1.6.6.4 1.2.3 1.2-.2 0-.6-.8-1.3-1.7-1.6-2-.8-4.6 2.1-3.8 4.2.3.7 0 2.2-.5 3.3-.7 1.3-.7 2.5 0 3.8.6 1.3.7 2.2 0 2.6-.6.4-.6 1.5.1 3.2.5 1.4.6 2.9.2 3.2-1.3.9-1.2 4.1.1 4.1.6 0 .2.7-.8 1.5s-2.3 1.2-2.7.9c-.5-.3-.9.2-.9 1 0 .9-.9 1.6-2 1.6s-2 .4-2 .9-.9 1.1-1.9 1.4c-1.5.4-1.8 1.1-1.4 2.8 1.1 4.5 1.7 4.6 18.6 4.8 8.9.1 17.1.2 18.2.3 4.3.1 7.7-.7 8.8-2.1.9-1.2.9-1.3 0-.7-.9.5-1.1.2-.7-.8.8-2 3.1-2.7 3.8-1.1.3.8 0 1.5-.7 1.8-.7.2-.3.9 1 1.5 3.3 1.8 10.2 0 13.2-3.5 2.2-2.6 2.4-2.6 1.9-.6-.5 1.9-.2 2.3 1.7 2.3 3.4 0 14.8-9.1 15-12 .1-.3.5-1.4 1.1-2.5.6-1.1 1.2-3.8 1.3-5.9.1-2.2.5-4.4.8-4.9.4-.6 0-.8-1-.4-.9.3-1.9.2-2.2-.4-.4-.5-1.2-.6-1.8-.3-.7.4-.9.4-.5-.1.4-.4 0-1.4-.8-2.2-.8-.8-1.1-2-.7-2.6.5-.8.9-.7 1.1.5.2 1.1.9 1.5 2 1.2 1.3-.5 1.4-.4.3.4-1 .7-1 1.1-.1 1.7 1.7 1.1 2.1.2 1.4-3.3-.4-1.9-1.1-2.9-1.9-2.6-.7.3-1.6 0-2-.5-.3-.6-1.1-.8-1.7-.5-.7.4-.8.2-.4-.4.4-.6 1.3-.9 2.1-.5 1 .3 1.5-.1 1.5-1.2 0-.9-.4-1.4-.8-1.1-.4.2-2.2-.2-4-1.1-3.2-1.5-4.1-3.6-2.2-4.8 1.7-1.1.1-2.3-2.5-2-2 .2-2.3 0-1.4-1.1.9-1.1.8-1.4-.4-1.4-.9 0-1.9-.9-2.2-2-.5-1.7-1.3-2-3.7-1.6-2.3.4-2.8.1-2.4-1.1.3-.8.6-1.9.6-2.5 0-.6.7-.5 1.7.3 1.1 1 1.4 1 .9.1-.4-.6-.3-1.2.2-1.2.6 0 1.2.7 1.6 1.5.6 1.7 5.6 2.1 5.6.5 0-.6.7-1 1.5-1 1.5 0 2-1.2.9-2.3-.4-.3-1.5.4-2.5 1.6l-1.8 2.2-.1-2.3c0-1.3.6-2.2 1.5-2.2.8 0 1.5-.6 1.5-1.3 0-.9.3-.8.9.2.6.9 1.1 1 1.5.2.4-.6-.4-1.3-1.9-1.7-3.3-.8-3.3-3.3.1-2.9 1.4.1 2.8-.3 3-1 .3-.7 1.4-1.1 2.5-.8 1.3.4 1.9 0 1.9-1.1 0-.9-.6-1.6-1.2-1.6-1 0-1-.2 0-.9 1.1-.7 1.1-1.8-.1-6.4-.8-3.1-1.2-5.8-.9-6.1.3-.3 0-.6-.6-.6-.7 0-1.2-.6-1.2-1.4 0-1.8-7.5-9.3-11.2-11.2-3.5-1.8-11.1-2.9-13.5-1.9-2.8 1.2-4.4 1.4-3.7.4.3-.5-1-.9-2.8-.9-2.5 0-2.9.3-1.8 1 .9.6 1 1 .3 1-.6 0-1.5-.4-1.8-1-.3-.5-1.5-.8-2.5-.7-2.2.4-3.9 1.7-2.1 1.7.8 0 .9.5.2 1.9-.9 1.5-.6 2.2 1.2 3.4l2.2 1.5-2.2-.1c-1.3-.1-2.3-.5-2.3-.9s-.5-.8-1.1-.8c-.5 0-.8.4-.4.9.3.5.1 1.2-.4 1.6-.6.3-.8 1.1-.5 1.8.2.7-1.1 3-3.1 5-1.9 2-3.5 4.1-3.5 4.7 0 .6-.8 1-1.7.8-.9-.2-1.5-.8-1.2-1.3.2-.5.7-.9 1-.8.4.1.6-.6.6-1.5 0-4 .4-5.3 1.3-4.7.5.3.7 1.1.4 1.9-.3.7.2 1.3 1.1 1.3.9 0 1.4-.6 1-1.4-.3-.7-.8-2-1.1-2.8-.4-1-.2-1.5.6-1.3.7.2 1.5-.3 1.8-1.1.2-.8 0-1.1-.5-.8-.6.4-1.9 0-2.9-.9-1.8-1.4-1.8-1.5.6-.8 4.3 1.1 4.5 1 4.2-2.1-.2-1.8.3-3.4 1.2-4 1.2-.9-2.1-1.2-13.7-1.2-8.4-.1-15.8.1-16.5.4zM46.3 91c.4 1.6 0 2-1.9 2-2.4 0-2.9-1.8-.9-3.2 1.6-1.2 2.2-.9 2.8 1.2zm.1 3.2c3.5-.2 10.9 5.1 10.5 7.6-.1.4-.1.9.1 1.2.1.3.3 2.2.6 4.3.4 3.3-.6 6.8-3.4 12-.2.5.5.4 1.7-.2 2.1-1.2 2.4-.8 2 2.6 0 .4.7 1 1.6 1.3 1.5.5 1.6.7.1 1.9-1.4 1.1-1.6 1.1-1.6-.3 0-.9-.7-1.6-1.6-1.6-.8 0-1.2-.5-.9-1 .4-.6 1.1-.7 1.7-.4.7.4.8.2.4-.4-.7-1.2-2.8-.6-8.4 2.1-1.5.8-4.2 1.3-5.9 1.2-2.6-.1-3.3.3-3.3 1.8 0 1-.5 1.5-1.1 1.2-.6-.4-.8-.9-.5-1.2.3-.3-.2-1.2-1-2s-1.2-1.9-.9-2.4c.6-.8-.8-1.3-2.7-1-1.4.2-.9-1.7.5-2.2 1-.4 1.3-3.1 1.2-11-.1-6.2.3-11 .9-11.9 1.5-2 3.7-2.7 6.1-2 1.1.3 2.9.5 3.9.4zM25.5 99c.3.5.1 1-.4 1-.6 0-1.1-.5-1.1-1 0-.6.2-1 .4-1 .3 0 .8.4 1.1 1zm47.1 12.9c0 1.1-.5 1.7-1.3 1.4-1.7-.6-1.7-2 0-2.6l1.2-.6c.1-.1.1.7.1 1.8zm-5.1 2.1c.3.5.1 1-.4 1-.6 0-1.1-.5-1.1-1 0-.6.2-1 .4-1 .3 0 .8.4 1.1 1zm-7 2.9c.3.5.1 1.2-.4 1.5-.5.3-1.1-.1-1.5-.9-.6-1.6.9-2.1 1.9-.6zm5 2c-.3.6-1.1 1.1-1.7 1.1-.6 0-.6-.6.2-1.5 1.4-1.7 2.6-1.3 1.5.4zm3.8 1.9c-.6 2.4-2.4 2.5-3.1.2-.3-.8 0-1 .8-.5 1 .6 1.2.4.7-.7-.7-1.8.3-3.2 1.5-2 .4.4.5 1.8.1 3zm-39.3-.7c0 .5.6.7 1.3.3.8-.5.9-.4.2.4-.6.7-2.6 1.5-4.4 1.8-3.2.7-3.2.6-2-1.5 1.4-2.2 4.9-2.9 4.9-1zm-6.6 1.4c-.4.8-1 1.2-1.5.9-1.1-.6-.2-2.4 1.1-2.4.5 0 .7.7.4 1.5zm-4.4.5c0 .5-.4 1-.9 1-.6 0-1.3-.5-1.6-1-.3-.6.1-1 .9-1 .9 0 1.6.4 1.6 1zm16 3.1c0 .6-.4.7-1 .4-.5-.3-1-1.1-1-1.6 0-.6.5-.7 1-.4.6.3 1 1.1 1 1.6zm-1.7 4.6c-.3.7-1.1 1.3-1.9 1.3-1.1 0-1.1-.5-.2-2.5.8-1.7 1.4-2.2 1.9-1.4.4.7.5 1.8.2 2.6zm23.4-3.1c-.3.3-1.2.4-1.9.1-.8-.3-.5-.6.6-.6 1.1-.1 1.7.2 1.3.5zm-29.7.8c0 .3-.4.8-1 1.1-.5.3-1 .1-1-.4 0-.6.5-1.1 1-1.1.6 0 1 .2 1 .4zm25.7 1.6c.1 1.1-.2 2-.5 2-.4 0-.8-.9-.9-2-.1-1.1.2-2 .5-2 .4 0 .8.9.9 2zm-7.4 1.5c-.3.9-.8 1.4-1 1.1-.3-.3-.2-.9.2-1.5.9-1.6 1.5-1.3.8.4zM27 131.6c0 .8-.5 1.2-1 .9-.6-.4-.8-1.1-.5-1.6.9-1.4 1.5-1.1 1.5.7zm10.5-.7c-.9.8-3.6 1-3 .2.2-.4 1.1-.8 2-.8.8 0 1.3.3 1 .6zm4.9 1.5c-.3.8-1.2 1.2-2 .9-2.1-.8-1.7-2.3.6-2.3 1.3 0 1.8.5 1.4 1.4zm-11.7 1.2c-.3.3-1.2.4-1.9.1-.8-.3-.5-.6.6-.6 1.1-.1 1.7.2 1.3.5zm14.1.5c-.2.6.8 1.3 2.2 1.5 5.5.9 11.5 4.8 13.6 8.9 1.2 2.2 1.9 4.4 1.7 4.8-.4.7-.7 3.1-1.2 10.4-.1.6-.8 1.9-1.7 2.7-.8.9-1.2 1.6-.8 1.6 1.3 0-4.1 3.7-6.5 4.5-1.3.4-5.1.7-8.4.6-6.3-.1-8.1-1.1-7.3-4.3.2-.9-.1-1.9-.6-2-.6-.2-1-2.4-.9-4.8.1-2.5.2-5.1.2-5.8-.1-2.1-.1-4.6.2-7.7.1-1.7-.1-3.8-.6-4.8s-.4-1.7.3-1.7c.6 0 .9-.4.6-.9-.4-.5.3-.7 1.4-.4 1.2.3 2.2-.1 2.6-1 .3-.9 1.2-1.3 2-1 .8.3 1.4 0 1.4-.6s.5-1.1 1-1.1c.6 0 .9.5.8 1.1zM28.5 136c.4.6 1.6.8 2.8.4 2.2-.6 2.2-.6.2 1.3-1.5 1.5-2.1 1.7-2.3.6-.4-1.6-2.2-1.7-2.2-.1 0 .9-.3.9-1.1.1-1.2-1.2-.4-3.3 1.1-3.3.5 0 1.2.5 1.5 1zm44.5 7c0 .5-.4 1-1 1-.5 0-1-.5-1-1 0-.6.5-1 1-1 .6 0 1 .4 1 1zm-1.2 6.5c-.3.3-.9-.2-1.2-1.2-.6-1.4-.5-1.5.5-.6.7.7 1 1.5.7 1.8zm4.9-.8c0 .7-.6 1.3-1.4 1.3-1.6 0-1.7 1.6-.3 2.5.8.5.7 1.1-.1 2.1-.8 1-.8 1.4 0 1.4.6 0 1 .3 1 .7-.1.5-.1 1.6 0 2.6.1 1.5.4 1.6 2.4.6s2.1-1 .6.5c-1.6 1.8-4.5 1.3-4.7-.7-1.1-10.9-1-12.6.7-12.4 1 0 1.8.7 1.8 1.4zM19 154.1c0 .5-.8.9-1.7.8-1.1 0-1.3-.3-.5-.6.6-.2.9-1 .6-1.5-.4-.7-.2-.8.4-.4.7.4 1.2 1.1 1.2 1.7zm62 1.9c0 .5-.7 1-1.5 1s-1.5.5-1.5 1.2c0 .6-.3.8-.6.5-.8-.8 1.4-3.7 2.7-3.7.5 0 .9.4.9 1zm-13.5 4.9c.3.5 0 1.3-.6 1.7-.7.4-.9.3-.5-.4.3-.6-.2-1.3-1.1-1.5-1.6-.4-1.6-.5-.1-.6.9 0 1.9.3 2.3.8zm8.5 6.5c-.7.7-1.7.2-3-1.2-2.8-3-2.5-3.6 1-1.5 2 1.1 2.6 2.1 2 2.7zm-4.9-.8c1.4 1.7.5 1.8-2.2.4-1.5-.9-1.9-.7-1.9.7s-.2 1.5-.9.4c-2.2-3.5 2.2-4.8 5-1.5zM14 173.5c0 .9-.6 1.2-1.5.9-.8-.4-1.2-1-.9-1.5.8-1.4 2.4-1 2.4.6zm17.5 4.5c-.3.5-1.2 1-1.8 1-.7 0-.6-.4.3-1 1.9-1.2 2.3-1.2 1.5 0zM116 84.1c0 .5.5.7 1 .4.6-.3 1-.8 1-1.1 0-.2-.4-.4-1-.4-.5 0-1 .5-1 1.1z"/><path d="M76.3 118.4c.3.7 0 1.9-.6 2.5-.6.6-.8 1.1-.3 1.1 1.4 0 3.7-3 3.1-4-.9-1.5-2.8-1.2-2.2.4z"/></svg>