<svg class="bell-icon profile-icon" height="681pt" viewBox="-81 -21 681 681.33325" width="681pt" xmlns="https://www.w3.org/2000/svg"><path d="m443.691406 352.707031v-97.804687c0-76.351563-45.636718-144.464844-116.265625-173.539063-11.386719-4.683593-19.570312-15.398437-19.570312-29.523437-.007813-45.207032-54.878907-69.300782-87.804688-36.996094-27.148437 26.636719-4.015625 53.578125-35.464843 66.523438-70.628907 29.070312-116.269532 97.191406-116.269532 173.535156v97.804687zm0 0"/><path d="m506.769531 463.273438-49.808593-73.136719h-401.914063l-49.808594 73.136719c-12.695312 18.640624-12 43.226562 1.738281 61.171874 9.78125 12.78125 25.507813 20.410157 42.066407 20.410157h413.917969c16.5625 0 32.292968-7.636719 42.074218-20.417969 13.730469-17.949219 14.425782-42.527344 1.734375-61.164062zm0 0"/><path d="m159.199219 582.285156c19.316406 33.722656 55.476562 56.464844 96.804687 56.464844 41.324219 0 77.484375-22.742188 96.800782-56.464844zm0 0"/></svg>
