<svg class="bug-icon profile-icon" xmlns="https://www.w3.org/2000/svg" viewBox="0 0 20 20"><path d="M19,6c-0.6,0-1,0.4-1,1v3h-2V9c0-0.6-0.4-1-1-1h-1V7c0-1.2-0.7-2.3-1.9-2.8C12.5,2.9,13.6,2,15,2c0.6,0,1-0.4,1-1 s-0.4-1-1-1c-2.4,0-4.4,1.7-4.9,4H9.9C9.4,1.7,7.4,0,5,0C4.4,0,4,0.4,4,1s0.4,1,1,1c1.4,0,2.5,0.9,2.9,2.2C6.7,4.7,6,5.8,6,7v1H5 C4.4,8,4,8.4,4,9v1H2V7c0-0.6-0.4-1-1-1S0,6.4,0,7v4c0,0.6,0.4,1,1,1h3v2H1c-0.6,0-1,0.4-1,1v4c0,0.6,0.4,1,1,1s1-0.4,1-1v-3h2.3 c1.1,3.1,4.5,4.7,7.7,3.6c1.7-0.6,3-1.9,3.6-3.6H18v3c0,0.6,0.4,1,1,1s1-0.4,1-1v-4c0-0.6-0.4-1-1-1h-3v-2h3c0.6,0,1-0.4,1-1V7 C20,6.4,19.6,6,19,6z M8,7c0-0.6,0.4-1,1-1h2c0.6,0,1,0.4,1,1v1H8V7z M10,18c-2.2,0-4-1.8-4-4v-4h8v4C14,16.2,12.2,18,10,18z"/></svg>
