<svg class="clock-icon" baseProfile="tiny" xmlns="https://www.w3.org/2000/svg" viewBox="0 0 560 560"><path d="M280 0C125.6 0 0 125.6 0 280s125.6 280 280 280 280-125.6 280-280S434.4 0 280 0zm0 498.8c-120.6 0-218.8-98.1-218.8-218.8 0-120.6 98.1-218.8 218.8-218.8S498.8 159.4 498.8 280c0 120.6-98.2 218.8-218.8 218.8z"/><path d="M304.2 280.3V163c0-13.1-10.6-23.7-23.7-23.7s-23.7 10.6-23.7 23.7v124.9c0 .4.1.7.1 1.1-.3 6.5 1.9 13 6.8 17.9l88.3 88.3c9.3 9.3 24.3 9.3 33.5 0 9.3-9.3 9.3-24.3 0-33.5l-81.3-81.4z"/></svg>
