<svg class="fist-icon profile-icon" xmlns="https://www.w3.org/2000/svg" viewBox="0 0 24 21.7" fill-rule="evenodd"><path d="M13.8 21.7c-1.4 0-2.7-.8-3.1-2.2-.2-.7-.3-1.5 0-2.2 0-.1.1-.2.2-.3l.8-.9c.4-.4 1-.5 1.4-.1s.5 1 .1 1.4l-.6.7c0 .2 0 .5.1.8.2.7 1 1 1.7.8l5.5-1.5c1.1-.3 1.5-1.2 1.9-2.3.2-.9 1-4-.5-6.8-.4-.5-.3-1.1.2-1.4s1.1-.1 1.3.4c1.8 3.4 1 6.9.6 8.3-.4 1.1-1 3-3.2 3.6l-5.5 1.5c-.2.2-.5.2-.9.2M6 13.5a.94.94 0 0 1-1-1V11a.94.94 0 0 1 1-1 .94.94 0 0 1 1 1v1.5a.94.94 0 0 1-1 1"/><path d="M11 14.5a.94.94 0 0 1-1-1V11a.94.94 0 0 1 1-1 .94.94 0 0 1 1 1v2.5a.94.94 0 0 1-1 1m5 0a.94.94 0 0 1-1-1V11a.94.94 0 0 1 1-1 .94.94 0 0 1 1 1v2.5a.94.94 0 0 1-1 1"/><path d="M12 13.5v1a1.54 1.54 0 0 0 1.5 1.5 1.54 1.54 0 0 0 1.5-1.5v-1a.94.94 0 0 1 1-1 .94.94 0 0 1 1 1 1.54 1.54 0 0 0 1.5 1.5c.1 0 .3-.1.6-.3C20.1 13.6 21 11 21 9s-.9-4.6-1.9-5.7c-.3-.2-.5-.3-.6-.3A1.54 1.54 0 0 0 17 4.5a.94.94 0 0 1-1 1 .94.94 0 0 1-1-1v-1A1.54 1.54 0 0 0 13.5 2 1.54 1.54 0 0 0 12 3.5v1a.94.94 0 0 1-1 1 .94.94 0 0 1-1-1A1.54 1.54 0 0 0 8.5 3 1.54 1.54 0 0 0 7 4.5v1a.94.94 0 0 1-1 1 .94.94 0 0 1-1-1A1.54 1.54 0 0 0 3.5 4C2.2 4 2 7.1 2 9s.2 5 1.5 5A1.54 1.54 0 0 0 5 12.5a.94.94 0 0 1 1-1 .94.94 0 0 1 1 1v1A1.54 1.54 0 0 0 8.5 15a1.54 1.54 0 0 0 1.5-1.5.94.94 0 0 1 1-1 .94.94 0 0 1 1 1m1.5 4.5c-1.3 0-2.4-.7-3-1.6-.5.4-1.2.6-2 .6-1.3 0-2.4-.7-3-1.6-.5.4-1.2.6-2 .6C0 16 0 10.7 0 9s0-7 3.5-7c.8 0 1.5.2 2 .7.6-1 1.7-1.7 3-1.7.8 0 1.5.2 2 .6.6-1 1.7-1.6 3-1.6s2.4.7 3 1.6c.5-.4 1.3-.6 2-.6s1.4.3 2 .9C21.9 3.4 23 6.5 23 9s-1.1 5.6-2.5 7.1c-1.3 1.3-2.9 1.1-4 .3-.6.9-1.7 1.6-3 1.6"/></svg>
