<svg class="info-icon profile-icon" xmlns="https://www.w3.org/2000/svg" viewBox="0 0 43 100"><path d="M2.7 47.4l-1.5 1c-1.3.8-1.6 2.5-.8 3.8l.2.3c.6.9 1.8 1 2.6 1.2.7 0 1.3.2 2 .3 1.2.4 2.1 1.2 2.8 2.2 1 1.7.3 3.8.1 4.8L1.7 87.4c-1.8 7.3 2.4 12.6 10 12.6 8.4 0 16-2.8 22.9-7.5.5-.3.9-.7 1.3-1.2 1.4-1.8.8-3.2-1.3-3.7-.6-.2-1.3-.3-1.9-.4-4.2-1.1-5.3-3-4.2-7.2L35 53.5c1.4-5.9-1.3-10.7-6.7-12-1.5-.3-3-.5-4.5-.5-1.9.1-3.7.3-5.6.6-1.2.2-2.3.5-3.3.7-1.9.5-3.8 1.2-5.7 1.9-1.2.5-2.6 1.1-4.2 1.9l-2.3 1.3zM28.9 0c-7.7-.2-14.1 5.9-14.3 13.7v.5c-.1 7.9 6.2 14.3 14.1 14.4S43 22.3 43 14.4C43.2 6.6 36.9.1 29.1 0h-.2z"/></svg>
