<svg class="logo-small" xmlns="https://www.w3.org/2000/svg" viewBox="0 0 42.4 5"><g class="st0"><path d="M3.4 0v1h-1v4H1V1H0V0h3.4zM6.1 0h1.4v5H6.1V3h-1v2H3.7V0h1.4v2.1h1V0zM9.5 4h1.7v1H8.1V0h3.1v1H9.5v1h1.4v1H9.5v1zM13.2 0h2.3c.8 0 1.2.3 1.2 1v.6c0 .5-.1.7-.4.9l.3.3c.1.1.1.3.1.5V4c0 .6-.4 1-1.2 1h-2.3V0zm2.2 1.9v-.8c0-.1-.1-.2-.2-.2h-.6v1.2h.6c.1 0 .2-.1.2-.2zm0 2.1v-.9c0-.1-.1-.1-.2-.1h-.6v1.2h.6c.1-.1.2-.1.2-.2zM18.7 3.2V5h-1.4V0h2.4c.8 0 1.2.3 1.2 1v1.3c0 .5-.2.8-.7.9l.9 1.8h-1.5l-.9-1.8zm.6-2.2h-.5v1.3h.5c.1 0 .2-.1.2-.2v-1c0-.1-.1-.1-.2-.1zM22.6 0h1.2c.8 0 1.2.3 1.2 1v3.1c0 .6-.4 1-1.2 1h-1.2c-.8 0-1.2-.3-1.2-1V1c0-.7.4-1 1.2-1zm.9 3.9V1.2c0-.2-.1-.2-.2-.2H23c-.1 0-.2.1-.2.2v2.7c0 .1 0 .1.2.1h.3c.1 0 .2 0 .2-.1zM30.5 1.9h-1.4v-.8c0-.1-.1-.2-.2-.2h-.3c-.1 0-.2.1-.2.2V4c0 .1.1.2.2.2h.3c.1 0 .2-.1.2-.2v-.8h1.4v.9c0 .6-.4 1-1.2 1h-1.1c-.8 0-1.2-.3-1.2-1V1c0-.6.4-1 1.2-1h1.1c.8 0 1.2.3 1.2 1v.9zM32.2 0h1.2c.8 0 1.2.3 1.2 1v3.1c0 .6-.4 1-1.2 1h-1.2c-.8 0-1.2-.3-1.2-1V1c0-.7.4-1 1.2-1zm.9 3.9V1.2c0-.2-.1-.2-.2-.2h-.3c-.1 0-.2.1-.2.2v2.7c0 .1 0 .1.2.1h.3c.1 0 .2 0 .2-.1zM35.2 0h2.3c.8 0 1.2.3 1.2 1v3.1c0 .6-.4 1-1.2 1h-2.3V0zm2.1 4V1.1c0-.1-.1-.2-.2-.2h-.5v3.2h.5c.1 0 .2 0 .2-.1zM40.7 4h1.7v1h-3.1V0h3.1v1h-1.7v1h1.4v1h-1.4v1z"/></g></svg>
