<svg class="logo" xmlns="https://www.w3.org/2000/svg" viewBox="0 0 49 11.7"><path d="M6.7 3.3v1h-1v4H4.3v-4h-1v-1h3.4zM9.4 3.3h1.4v5H9.4v-2h-1v2H7v-5h1.4v2.1h1V3.3zM12.8 7.3h1.7v1h-3.1v-5h3.1v1h-1.7v1h1.4v1h-1.4v1zM16.5 3.3h2.3c.8 0 1.2.3 1.2 1v.6c0 .5-.1.7-.4.9l.3.3c.1.1.1.3.1.5v.7c0 .6-.4 1-1.2 1h-2.3v-5zm2.2 1.9v-.8c0-.1-.1-.2-.2-.2h-.6v1.2h.6c.1-.1.2-.1.2-.2zm0 2v-.8c0-.1-.1-.2-.2-.2h-.6v1.2h.6c.1 0 .2-.1.2-.2zM22 6.5v1.8h-1.4v-5H23c.8 0 1.2.3 1.2 1v1.3c0 .5-.2.8-.7.9l.9 1.8h-1.5L22 6.5zm.6-2.2H22v1.3h.5c.1 0 .2-.1.2-.2v-1c0-.1 0-.1-.1-.1zM25.8 3.3H27c.8 0 1.2.3 1.2 1v3.1c0 .6-.4 1-1.2 1h-1.2c-.8 0-1.2-.3-1.2-1V4.3c.1-.7.5-1 1.2-1zm1 3.9V4.4c0-.1-.1-.2-.2-.2h-.3c-.1 0-.2.1-.2.2v2.7c0 .1.1.2.2.2h.3c.1 0 .2 0 .2-.1zM33.8 5.2h-1.4v-.8c0-.1-.1-.2-.2-.2h-.3c-.1 0-.2.1-.2.2v2.9c0 .1.1.2.2.2h.3c.1 0 .2-.1.2-.2v-.8h1.4v.9c0 .6-.4 1-1.2 1h-1.1c-.8 0-1.2-.3-1.2-1V4.3c0-.6.4-1 1.2-1h1.1c.8 0 1.2.3 1.2 1v.9zM35.4 3.3h1.2c.8 0 1.2.3 1.2 1v3.1c0 .6-.4 1-1.2 1h-1.2c-.8 0-1.2-.3-1.2-1V4.3c.1-.7.5-1 1.2-1zm1 3.9V4.4c0-.1-.1-.2-.2-.2h-.3c-.1 0-.2.1-.2.2v2.7c0 .1.1.2.2.2h.3c.1 0 .2 0 .2-.1zM38.5 3.3h2.3c.8 0 1.2.3 1.2 1v3.1c0 .6-.4 1-1.2 1h-2.3V3.3zm2.1 3.9V4.4c0-.1-.1-.2-.2-.2h-.5v3.2h.5c.1 0 .2-.1.2-.2zM44 7.3h1.7v1h-3.1v-5h3.1v1H44v1h1.4v1H44v1z"/><path fill="none" class="stroke" stroke-width="1.6" stroke-miterlimit="10" d="M.8.8h47.4v10.1H.8z"/></svg>
