<svg class="shit-icon profile-icon" xmlns="https://www.w3.org/2000/svg" viewBox="0 0 90 73.2"><path d="M19.3 17.2c6 5.8 14.2 9.4 22.6 10.3 7.2.7 17.4-1 21-8.2C67.7 9.4 58 .3 48.6.1c-5.4-.1-11.3-.5-16 2.2-1.7 1-1.3 3.5.5 4.2a49.43 49.43 0 0 0 3.5 1.2c.5.2 1 .3 1.4.5.4.1.8.2 1.1.3.7.3 1.8.9.4 1.3-9.4 2.7-18.2-.8-25.7-6.2-.3-.2-.5-.4-.8-.4-.9-.2-1.6.8-1.6 1.6.1 2 2.2 4.9 3.2 6.6 1.3 2.1 2.9 4.1 4.7 5.8M23 47.9c8.5 1.5 17.1 1.5 25.6 1.2 4.4-.1 8.7-.4 13.1-.5 3.7-.1 7.4-.2 10.8-1.8 8.4-3.9 11-15.5 4.3-22.3-1.5-1.5-7.6-5.7-9.8-3.9-.4.3-.6.8-.8 1.2-2.8 6.1-9.4 9.9-16 9.9-10 0-20.4-.4-29.3-5.5-1.4-.8-3.1-2.7-4.6-3.1-1.4-.4-2.4.8-3.5 2-2.2 2.5-3.5 5.7-3.5 9.1 0 8.8 6 12.4 13.7 13.7m67 9.7c0 8.7-7 14.8-15.3 15.3-10.6.7-21.2 0-31.8 0l-23.4.1c-4.9-.1-10.5-.6-14.3-3.9C1.9 66.3 0 61.9 0 57.6c0-4.8 2.3-9.2 5.8-12 .7-.6 1.8-.4 2.3.3 1.1 1.3 2.8 3.2 3 3.4 1.7 1.5 3.7 2.7 5.9 3.4 6.9 2.5 15.1 1.1 22.3 1.4 6.2.3 12.5.2 18.7 0 5-.2 10.7.3 15.4-1.5 2-.8 3.9-1.9 5.5-3.3.4-.3 4.2-4.5 3.8-4.7 4.4 2.6 7.3 7.5 7.3 13" fill-rule="evenodd"/></svg>
